<svg xmlns="http://www.w3.org/2000/svg" width="222.159" height="53.399" viewBox="0 0 222.159 53.399">
  <path id="logop" d="M217.356,14.917a13.6,13.6,0,0,1-5.558-4.1,10.947,10.947,0,0,1-2.336-5.927H221.6a2.993,2.993,0,0,0,1.225,2.109,4.388,4.388,0,0,0,2.537.684A2.5,2.5,0,0,0,226.9,7.25a1.278,1.278,0,0,0,.57-1.055,1.591,1.591,0,0,0-1.2-1.539,28.572,28.572,0,0,0-4.047-1.026A41.565,41.565,0,0,1,216.5,2.149a9.264,9.264,0,0,1-3.933-2.736,7.911,7.911,0,0,1-1.681-5.359,9.71,9.71,0,0,1,1.568-5.387,10.526,10.526,0,0,1,4.645-3.819,18.009,18.009,0,0,1,7.467-1.4q6.5,0,10.174,3.192a13.109,13.109,0,0,1,4.417,8.322H227.93a3.378,3.378,0,0,0-1.2-2.024,3.883,3.883,0,0,0-2.452-.712,2.512,2.512,0,0,0-1.481.37,1.283,1.283,0,0,0-.513,1.111q0,.969,1.2,1.454a22.709,22.709,0,0,0,3.819,1A41.433,41.433,0,0,1,233.174-2.3,9.676,9.676,0,0,1,237.335.638,8.574,8.574,0,0,1,239.1,6.367a8.521,8.521,0,0,1-1.653,5.13,10.957,10.957,0,0,1-4.759,3.591,18.573,18.573,0,0,1-7.268,1.311A20.561,20.561,0,0,1,217.356,14.917Zm-40.213-.484a13.278,13.278,0,0,1-4.76-5.7,20.7,20.7,0,0,1-1.738-8.807,20.7,20.7,0,0,1,1.738-8.807,13.275,13.275,0,0,1,4.76-5.7,12.168,12.168,0,0,1,6.782-1.966,10.707,10.707,0,0,1,5.386,1.282,8.748,8.748,0,0,1,3.449,3.505V-26.18h12.654V16H192.761V11.611a8.742,8.742,0,0,1-3.449,3.506,10.707,10.707,0,0,1-5.386,1.283A12.161,12.161,0,0,1,177.143,14.432Zm7.637-18.5a5.677,5.677,0,0,0-1.31,3.991,5.673,5.673,0,0,0,1.31,3.99,4.682,4.682,0,0,0,6.727,0,5.673,5.673,0,0,0,1.31-3.99,5.677,5.677,0,0,0-1.31-3.991,4.367,4.367,0,0,0-3.363-1.425A4.368,4.368,0,0,0,184.781-4.064ZM154,16V-16.148h12.654V16Zm-17.955,0L128.123,3.175V16H115.469V-26.18h12.654V-4.121l8.037-12.027h14.706L138.839.04,151.151,16Zm-47.2,0V-16.148H101.5v5.927a15.376,15.376,0,0,1,4.731-4.474,11.113,11.113,0,0,1,5.814-1.682V-2.867h-3.591q-3.591,0-5.272,1.255T101.5,2.833V16ZM17,9.5v-40A6.5,6.5,0,0,1,23.5-37a6.48,6.48,0,0,1,4.593,1.9A19.435,19.435,0,0,1,36.5-37,19.5,19.5,0,0,1,56-17.5,19.5,19.5,0,0,1,36.5,2,19.461,19.461,0,0,1,30,.89V9.5a6.5,6.5,0,0,1-13,0Zm58.756,2.586A15.478,15.478,0,0,1,70.5,13,15.5,15.5,0,0,1,55-2.5,15.5,15.5,0,0,1,70.5-18a15.433,15.433,0,0,1,6.868,1.6A4.987,4.987,0,0,1,80.5-17.5a5,5,0,0,1,5,5v6.082A15.533,15.533,0,0,1,86-2.5a15.528,15.528,0,0,1-.5,3.918V10.5a5,5,0,0,1-9.744,1.587ZM155.084-20.48a5.685,5.685,0,0,1-2-4.446,5.835,5.835,0,0,1,2-4.531,7.625,7.625,0,0,1,5.3-1.8,7.539,7.539,0,0,1,5.243,1.8,5.835,5.835,0,0,1,2,4.531,5.685,5.685,0,0,1-2,4.446,7.615,7.615,0,0,1-5.243,1.768A7.7,7.7,0,0,1,155.084-20.48Z" transform="translate(-17 37)" fill="#7c3aed"/>
</svg>
